<svg width="22" height="53" viewBox="0 0 22 53" fill="none" xmlns="http://www.w3.org/2000/svg">
<path d="M21.6254 22.8301H16.6891V25.719H21.6254V22.8301Z" fill="#1F1F28"/>
<path d="M20.857 6.54323C20.3448 5.26939 19.623 4.19269 18.6916 3.29039C17.768 2.39567 16.6503 1.70567 15.3464 1.20523C14.0425 0.712377 12.5989 0.462158 11.0078 0.462158C9.41667 0.462158 7.97305 0.712377 6.66136 1.20523C5.34968 1.70567 4.22427 2.39567 3.28514 3.29039C2.36153 4.19269 1.63195 5.27697 1.13522 6.54323C0.63073 7.81707 0.374603 9.22739 0.374603 10.7742V22.0871H5.31087V10.8197C5.31087 8.95443 5.82313 7.49103 6.84764 6.45224C7.87215 5.41346 9.24592 4.89027 10.969 4.89027C12.692 4.89027 14.0735 5.41346 15.1213 6.45224C16.1536 7.49103 16.6814 8.95443 16.6814 10.8197V22.0871H21.6176V10.7742C21.6176 9.23498 21.3615 7.81707 20.857 6.54323Z" fill="#5448CE"/>
<path d="M5.31863 22.8301H0.382355V25.719H5.31863V22.8301Z" fill="#1F1F28"/>
<path d="M16.6891 42.0969C16.6891 43.9698 16.1691 45.4332 15.1291 46.472C14.0813 47.5108 12.7075 48.0339 10.9767 48.0339C9.24591 48.0339 7.8799 47.5108 6.85539 46.472C5.83088 45.4332 5.31863 43.9698 5.31863 42.0969V30.7385H0.382355V42.1424C0.382355 43.6968 0.638482 45.1071 1.14297 46.381C1.64747 47.6548 2.37704 48.7315 3.29289 49.6262C4.22426 50.5285 5.35743 51.2185 6.66911 51.719C7.98079 52.2118 9.42442 52.4621 11.0155 52.4621C12.6066 52.4621 14.0502 52.2118 15.3542 51.719C16.6581 51.2185 17.7757 50.5285 18.6993 49.6262C19.6307 48.7315 20.3525 47.6548 20.8648 46.381C21.3693 45.1071 21.6254 43.6968 21.6254 42.1424V30.7385H16.6891V42.0969Z" fill="#5448CE"/>
<path d="M21.6254 27.1899H16.6891V29.9878H21.6254V27.1899Z" fill="#1F1F28"/>
<path d="M5.31863 27.1899H0.382355V29.9878H5.31863V27.1899Z" fill="#1F1F28"/>
</svg>
