<svg width="283" height="101" viewBox="0 0 283 101" fill="none" xmlns="http://www.w3.org/2000/svg">
<g clip-path="url(#clip0_6130_16825)">
<path d="M0 0.550781H6.81771V32.4354H25.242V38.7073H0V0.550781Z" fill="white"/>
<path d="M55.0558 41.457H48.5059V45.3808H55.0558V41.457Z" fill="white"/>
<path d="M54.0375 19.3357C53.3578 17.6055 52.4001 16.1431 51.1642 14.9176C49.9387 13.7023 48.4557 12.7652 46.7255 12.0854C44.9953 11.416 43.0798 11.0762 40.9685 11.0762C38.8573 11.0762 36.9418 11.416 35.2013 12.0854C33.4608 12.7652 31.9675 13.7023 30.7214 14.9176C29.4958 16.1431 28.5278 17.6158 27.8686 19.3357C27.1992 21.0659 26.8594 22.9814 26.8594 25.0824V40.448H33.4093V25.1441C33.4093 22.6107 34.089 20.623 35.4485 19.2121C36.8079 17.8012 38.6307 17.0906 40.917 17.0906C43.2033 17.0906 45.0365 17.8012 46.4268 19.2121C47.7966 20.623 48.4969 22.6107 48.4969 25.1441V40.448H55.0468V25.0824C55.0468 22.9917 54.707 21.0659 54.0375 19.3357Z" fill="#5448CE"/>
<path d="M33.4191 41.457H26.8691V45.3808H33.4191V41.457Z" fill="white"/>
<path d="M48.5066 67.6266C48.5066 70.1704 47.8166 72.158 46.4366 73.5689C45.0463 74.9799 43.2234 75.6905 40.9268 75.6905C38.6302 75.6905 36.8176 74.9799 35.4582 73.5689C34.0988 72.158 33.4191 70.1704 33.4191 67.6266V52.1992H26.8691V67.6884C26.8691 69.7996 27.209 71.7152 27.8784 73.4454C28.5478 75.1755 29.5159 76.6379 30.7311 77.8532C31.967 79.0787 33.4706 80.0159 35.2111 80.6956C36.9515 81.365 38.8671 81.7049 40.9783 81.7049C43.0895 81.7049 45.0051 81.365 46.7353 80.6956C48.4654 80.0159 49.9484 79.0787 51.174 77.8532C52.4098 76.6379 53.3676 75.1755 54.0473 73.4454C54.7167 71.7152 55.0566 69.7996 55.0566 67.6884V52.1992H48.5066V67.6266Z" fill="#5448CE"/>
<path d="M55.0558 47.3789H48.5059V51.1791H55.0558V47.3789Z" fill="white"/>
<path d="M33.4191 47.3789H26.8691V51.1791H33.4191V47.3789Z" fill="white"/>
<path d="M63.3272 25.1338C63.3272 27.6776 64.0069 29.655 65.3766 31.0762C66.7361 32.4974 68.5692 33.1977 70.8555 33.1977C72.5239 33.1977 73.9554 32.8166 75.1295 32.0545C76.3035 31.2924 77.1892 30.2214 77.7762 28.8414H84.5939C83.8627 32.0442 82.3076 34.5674 79.908 36.4212C77.5085 38.2749 74.5115 39.2018 70.9173 39.2018C68.8061 39.2018 66.8802 38.862 65.1398 38.1925C63.3993 37.5231 61.906 36.5654 60.6701 35.3295C59.4343 34.0937 58.4765 32.6004 57.8071 30.8599C57.1377 29.1194 56.7979 27.1936 56.7979 25.0824C56.7979 22.9711 57.1377 21.0556 57.8071 19.3357C58.4765 17.6158 59.4343 16.1431 60.6701 14.9176C61.906 13.7023 63.3993 12.7549 65.1398 12.0854C66.8802 11.416 68.8061 11.0762 70.9173 11.0762C74.4807 11.0762 77.457 11.9928 79.8566 13.8259C82.2561 15.6591 83.8215 18.1411 84.5424 21.2615H77.7247C77.1377 19.9227 76.2623 18.8826 75.078 18.1514C73.8936 17.4304 72.493 17.0597 70.8555 17.0597C68.5692 17.0597 66.7361 17.7703 65.3766 19.1812C64.0172 20.6024 63.3272 22.5798 63.3272 25.1235V25.1338Z" fill="white"/>
<path d="M99.1871 11.0664C101.298 11.0664 103.224 11.4063 104.965 12.0757C106.705 12.7451 108.198 13.7029 109.434 14.9387C110.67 16.1745 111.628 17.6678 112.297 19.4083C112.967 21.1488 113.307 23.0746 113.307 25.1859V38.6977H106.767V36.0819C106.118 36.916 105.109 37.6473 103.739 38.2652C102.38 38.8831 100.691 39.1921 98.6928 39.1921C96.6948 39.1921 94.9132 38.8522 93.2448 38.1828C91.5764 37.5134 90.1346 36.5556 88.9399 35.3198C87.7453 34.0839 86.8081 32.5906 86.1284 30.8501C85.459 29.1097 85.1191 27.1838 85.1191 25.0726C85.1191 22.9614 85.459 21.0458 86.1284 19.3259C86.7978 17.6061 87.7556 16.1333 88.9914 14.9078C90.2273 13.6926 91.7103 12.7451 93.4302 12.0757C95.1603 11.4063 97.0759 11.0664 99.1768 11.0664H99.1871ZM106.767 25.1344C106.767 22.5906 106.087 20.6133 104.728 19.1921C103.368 17.7708 101.535 17.0705 99.2489 17.0705C96.9626 17.0705 95.1191 17.7811 93.7391 19.1921C92.3591 20.6133 91.6691 22.5906 91.6691 25.1344C91.6691 27.6781 92.3591 29.6555 93.7391 31.0767C95.1191 32.4979 96.9523 33.1982 99.2489 33.1982C101.546 33.1982 103.368 32.4876 104.728 31.0767C106.087 29.6658 106.767 27.6781 106.767 25.1344Z" fill="white"/>
<path d="M115.758 0.550781H122.297V38.7073H115.758V0.550781Z" fill="white"/>
<path d="M124.748 0.550781H131.288V38.7073H124.748V0.550781Z" fill="white"/>
<path d="M132.101 11.4478H138.918L145.458 30.3046L151.998 11.4478H158.815L149.165 38.6981C148.62 40.2944 148.064 41.8906 147.507 43.4972C146.941 45.0935 146.21 46.5353 145.303 47.833C144.397 49.1203 143.223 50.1708 141.792 50.9638C140.36 51.7671 138.496 52.1584 136.199 52.1584V46.1646C137.106 46.1646 137.95 45.9071 138.733 45.4025C139.516 44.8979 140.164 44.2387 140.7 43.4354C141.225 42.6321 141.575 41.7568 141.74 40.7887C141.905 39.8206 141.823 38.8937 141.493 37.9772L132.121 11.4375L132.101 11.4478Z" fill="white"/>
<path d="M69.5779 81.8691C67.3224 81.8691 65.4069 81.4983 63.8312 80.7465C62.2555 79.9947 60.9476 79.0575 59.9383 77.9144C58.9187 76.7712 58.1875 75.5251 57.7344 74.1863C57.2813 72.8474 57.0547 71.5704 57.0547 70.3758V54.1348H63.5943V70.211C63.5943 71.1893 63.7591 72.0338 64.0887 72.7136C64.4182 73.4036 64.8508 73.9906 65.3966 74.454C65.9424 74.9175 66.5809 75.2676 67.3019 75.4839C68.0228 75.7002 68.7952 75.8135 69.5882 75.8135C70.3812 75.8135 71.1536 75.7002 71.8745 75.4839C72.5954 75.2676 73.2339 74.9175 73.7797 74.454C74.3255 73.9803 74.7581 73.4036 75.0876 72.7136C75.4172 72.0235 75.582 71.1893 75.582 70.211V54.1348H82.1216V70.3758C82.1216 71.5704 81.8951 72.8474 81.4419 74.1863C80.9888 75.5354 80.2473 76.7712 79.238 77.9144C78.2184 79.0575 76.9208 80.005 75.3451 80.7465C73.7694 81.488 71.8436 81.8691 69.5985 81.8691H69.5779Z" fill="#5448CE"/>
<path d="M98.1356 81.7558C93.6248 81.7558 90.2262 80.6539 87.9193 78.4602C85.6124 76.2666 84.459 73.0534 84.459 68.8413V43.2285H90.9986V68.7898C90.9986 71.2924 91.5445 73.0843 92.6361 74.1554C93.7278 75.2265 95.5609 75.762 98.1459 75.762V81.7558H98.1356ZM97.2087 54.1245V60.1183H86.7968V54.1245H97.2087Z" fill="#5448CE"/>
<path d="M105.983 61.4898C105.983 62.1489 106.343 62.6535 107.075 63.014C107.796 63.3745 108.722 63.7143 109.824 64.0233C110.926 64.3322 112.121 64.6618 113.398 65.0016C114.675 65.3415 115.859 65.8358 116.972 66.4744C118.084 67.1129 119 67.9574 119.721 69.0078C120.442 70.0583 120.813 71.4383 120.813 73.1479C120.813 74.5279 120.545 75.7534 120.02 76.8245C119.495 77.8956 118.753 78.7915 117.816 79.5228C116.869 80.254 115.756 80.7998 114.459 81.1602C113.161 81.5207 111.74 81.7061 110.185 81.7061C108.733 81.7061 107.414 81.5619 106.23 81.2735C105.046 80.9852 103.995 80.6247 103.068 80.2128C102.142 79.7905 101.338 79.3374 100.669 78.8533C99.9994 78.3693 99.4433 77.9368 99.0107 77.5763L102.502 72.4579C103.666 73.5495 104.922 74.3631 106.292 74.909C107.651 75.4548 109.011 75.7225 110.35 75.7225C111.472 75.7225 112.409 75.5372 113.161 75.1561C113.903 74.7751 114.284 74.188 114.284 73.3848C114.284 72.5815 113.923 71.9738 113.192 71.5619C112.461 71.1396 111.544 70.7792 110.442 70.4702C109.34 70.1613 108.146 69.8317 106.869 69.4919C105.592 69.152 104.407 68.668 103.295 68.05C102.183 67.4321 101.266 66.6288 100.545 65.6299C99.814 64.6309 99.4536 63.2921 99.4536 61.6237C99.4536 59.1211 100.339 57.1747 102.1 55.7946C103.861 54.4146 106.292 53.7246 109.371 53.7246C110.72 53.7246 111.956 53.8482 113.079 54.1057C114.201 54.3631 115.231 54.6824 116.158 55.0634C117.085 55.4445 117.929 55.877 118.691 56.3714C119.454 56.8657 120.123 57.36 120.71 57.875L117.219 62.9419C115.767 61.737 114.356 60.9028 112.996 60.4393C111.637 59.9656 110.391 59.7287 109.258 59.7287C108.207 59.7287 107.394 59.8935 106.838 60.2231C106.282 60.5526 105.993 60.9852 105.993 61.531L105.983 61.4898Z" fill="#5448CE"/>
<path d="M121.679 67.7503C121.679 65.6391 122.019 63.7235 122.688 62.0037C123.357 60.2838 124.315 58.8111 125.551 57.5855C126.787 56.36 128.28 55.4228 130.021 54.7534C131.761 54.084 133.687 53.7441 135.798 53.7441C137.909 53.7441 139.825 54.084 141.545 54.7534C143.265 55.4228 144.748 56.3703 145.984 57.5855C147.219 58.8008 148.177 60.2735 148.847 62.0037C149.516 63.7338 149.856 65.6494 149.856 67.7503C149.856 69.8512 149.516 71.7874 148.847 73.5279C148.177 75.2683 147.219 76.7616 145.984 77.9975C144.748 79.2333 143.265 80.1911 141.545 80.8605C139.815 81.5299 137.899 81.8698 135.798 81.8698C133.697 81.8698 131.761 81.5299 130.021 80.8605C128.28 80.1911 126.787 79.2333 125.551 77.9975C124.315 76.7616 123.357 75.2683 122.688 73.5279C122.019 71.7874 121.679 69.8615 121.679 67.7503ZM128.218 67.8121C128.218 70.3559 128.898 72.3332 130.257 73.7544C131.617 75.1757 133.45 75.876 135.736 75.876C138.023 75.876 139.866 75.1654 141.246 73.7544C142.626 72.3435 143.316 70.3559 143.316 67.8121C143.316 65.2683 142.626 63.291 141.246 61.8698C139.866 60.4486 138.033 59.7483 135.736 59.7483C133.44 59.7483 131.627 60.4589 130.257 61.8698C128.898 63.291 128.218 65.2683 128.218 67.8121Z" fill="#5448CE"/>
<path d="M164.079 81.8691C161.823 81.8691 159.908 81.4983 158.332 80.7465C156.756 79.9947 155.449 79.0575 154.439 77.9144C153.42 76.7712 152.689 75.5251 152.235 74.1863C151.782 72.8474 151.556 71.5704 151.556 70.3758V54.1348H158.095V70.211C158.095 71.1893 158.26 72.0338 158.59 72.7136C158.919 73.4036 159.352 73.9906 159.898 74.454C160.443 74.9175 161.082 75.2676 161.803 75.4839C162.524 75.7002 163.296 75.8135 164.089 75.8135C164.882 75.8135 165.655 75.7002 166.375 75.4839C167.096 75.2676 167.735 74.9175 168.281 74.454C168.827 73.9803 169.259 73.4036 169.589 72.7136C169.918 72.0235 170.083 71.1893 170.083 70.211V54.1348H176.623V70.3758C176.623 71.5704 176.396 72.8474 175.943 74.1863C175.49 75.5354 174.748 76.7712 173.739 77.9144C172.719 79.0575 171.422 80.005 169.846 80.7465C168.27 81.488 166.345 81.8691 164.099 81.8691H164.079Z" fill="#5448CE"/>
<path d="M178.249 66.1226C178.249 61.9825 179.464 58.862 181.905 56.7714C184.336 54.6808 187.631 53.6406 191.771 53.6406V59.6344C189.588 59.6344 187.878 60.17 186.653 61.241C185.417 62.3121 184.799 63.9393 184.799 66.1226V81.3852H178.259V66.1226H178.249Z" fill="#5448CE"/>
<path d="M196.458 67.8116C196.458 70.3553 197.137 72.3327 198.497 73.7539C199.856 75.1751 201.689 75.8754 203.976 75.8754C205.644 75.8754 207.076 75.4944 208.25 74.7323C209.434 73.9702 210.309 72.8991 210.896 71.5191H217.714C216.983 74.722 215.428 77.2451 213.028 79.0989C210.629 80.9527 207.632 81.8796 204.037 81.8796C201.926 81.8796 200 81.5397 198.26 80.8703C196.519 80.2009 195.026 79.2431 193.79 78.0073C192.554 76.7714 191.597 75.2781 190.927 73.5376C190.258 71.7972 189.918 69.8713 189.918 67.7601C189.918 65.6489 190.258 63.7333 190.927 62.0134C191.597 60.2936 192.554 58.8208 193.79 57.5953C195.026 56.3698 196.519 55.4326 198.26 54.7632C200 54.0938 201.926 53.7539 204.037 53.7539C207.601 53.7539 210.577 54.6705 212.977 56.5037C215.376 58.3368 216.942 60.8188 217.663 63.9393H210.845C210.268 62.6005 209.382 61.5603 208.198 60.8291C207.014 60.1082 205.613 59.7374 203.976 59.7374C201.689 59.7374 199.866 60.448 198.497 61.859C197.137 63.2802 196.458 65.2575 196.458 67.8013V67.8116Z" fill="#5448CE"/>
<path d="M219.012 46.2251C219.012 45.2467 219.362 44.4022 220.052 43.6916C220.742 42.981 221.597 42.6309 222.616 42.6309C223.636 42.6309 224.491 42.981 225.181 43.6916C225.871 44.4022 226.221 45.2467 226.221 46.2251C226.221 47.2756 225.871 48.1509 225.181 48.841C224.491 49.531 223.636 49.8811 222.616 49.8811C221.597 49.8811 220.742 49.531 220.052 48.841C219.362 48.1509 219.012 47.2756 219.012 46.2251ZM219.341 54.1242H225.881V81.3744H219.341V54.1242Z" fill="#5448CE"/>
<path d="M240.597 53.6406C242.853 53.6406 244.768 54.0114 246.344 54.7632C247.93 55.5047 249.228 56.4522 250.237 57.5953C251.257 58.7385 251.988 59.9846 252.441 61.3234C252.894 62.6725 253.121 63.9393 253.121 65.1339V81.3749H246.581V65.2987C246.581 64.3203 246.416 63.4861 246.087 62.7961C245.757 62.1061 245.325 61.5294 244.779 61.0557C244.233 60.5819 243.594 60.2421 242.873 60.0155C242.153 59.7889 241.38 59.6859 240.587 59.6859C239.794 59.6859 239.022 59.7992 238.301 60.0155C237.57 60.2318 236.941 60.5819 236.396 61.0557C235.85 61.5294 235.417 62.1061 235.088 62.7961C234.758 63.4861 234.593 64.3203 234.593 65.2987V81.3749H228.054V65.1339C228.054 63.9393 228.28 62.6623 228.733 61.3234C229.187 59.9846 229.918 58.7385 230.937 57.5953C231.957 56.4522 233.255 55.5047 234.83 54.7632C236.406 54.0217 238.321 53.6406 240.577 53.6406H240.597Z" fill="#5448CE"/>
<path d="M282.945 80.2934C282.945 82.1059 282.616 83.7743 281.967 85.2779C281.318 86.7815 280.391 88.0895 279.217 89.1708C278.033 90.2625 276.611 91.107 274.943 91.7043C273.275 92.3016 271.4 92.6003 269.33 92.6003C266.57 92.6003 264.109 92.0647 261.946 90.9937C259.783 89.9226 257.992 88.4808 256.581 86.658L261.926 82.8989C262.657 83.8052 263.604 84.6497 264.789 85.4324C265.973 86.2151 267.507 86.6065 269.392 86.6065C271.678 86.6065 273.429 86.0194 274.624 84.8351C275.818 83.6507 276.426 82.1368 276.426 80.2831V78.6971C275.767 79.5313 274.768 80.2625 273.398 80.8804C272.039 81.4983 270.36 81.8073 268.352 81.8073C266.344 81.8073 264.572 81.4674 262.904 80.798C261.236 80.1286 259.794 79.1708 258.599 77.935C257.404 76.6991 256.467 75.2058 255.788 73.4654C255.118 71.7249 254.778 69.799 254.778 67.6878C254.778 65.5766 255.118 63.661 255.788 61.9412C256.457 60.2213 257.415 58.7486 258.651 57.523C259.886 56.2975 261.369 55.3603 263.089 54.6909C264.809 54.0215 266.735 53.6816 268.836 53.6816C270.937 53.6816 272.873 54.0215 274.614 54.6909C276.354 55.3603 277.847 56.3181 279.083 57.5539C280.319 58.7898 281.277 60.2831 281.946 62.0236C282.616 63.764 282.955 65.6899 282.955 67.8011V80.2831L282.945 80.2934ZM276.406 67.7496C276.406 65.2058 275.726 63.2285 274.366 61.8073C273.007 60.3861 271.174 59.6858 268.887 59.6858C266.601 59.6858 264.768 60.3964 263.388 61.8073C262.008 63.2285 261.318 65.2058 261.318 67.7496C261.318 70.2934 262.008 72.2707 263.388 73.6919C264.768 75.1132 266.601 75.8135 268.887 75.8135C271.174 75.8135 273.007 75.1029 274.366 73.6919C275.726 72.2707 276.406 70.2934 276.406 67.7496Z" fill="#5448CE"/>
<path d="M28.9702 89.8291H25.7158V88.0371H34.1813V89.8291H30.9166V98.9331H28.9702V89.8291Z" fill="white"/>
<path d="M36.7459 98.9331H34.8818V88.0371H36.7459V98.9331ZM38.7129 91.0134C39.2897 91.0134 39.7943 91.1164 40.2165 91.3327C40.6388 91.549 40.9786 91.8167 41.2464 92.1463C41.5142 92.4758 41.7201 92.826 41.8437 93.207C41.9776 93.5881 42.0394 93.9588 42.0394 94.2987V98.9331H40.1753V94.3399C40.1753 94.0618 40.1239 93.825 40.0312 93.619C39.9385 93.413 39.8149 93.2585 39.6604 93.1247C39.5059 92.9908 39.3206 92.8878 39.1146 92.826C38.9086 92.7642 38.6923 92.7333 38.4658 92.7333C38.2392 92.7333 38.0229 92.7642 37.817 92.826C37.611 92.8878 37.4256 92.9908 37.2711 93.1247C37.1166 93.2585 36.9931 93.4233 36.9004 93.619C36.8077 93.8147 36.7562 94.0515 36.7562 94.3399V98.9331H34.8921L35.5101 94.6077C35.5615 94.2781 35.6336 93.8971 35.7366 93.4748C35.8396 93.0526 36.0044 92.6612 36.231 92.3008C36.4678 91.9403 36.7768 91.6313 37.1681 91.3842C37.5595 91.137 38.0744 91.0134 38.7129 91.0134Z" fill="white"/>
<path d="M42.874 88.9004C42.874 88.6224 42.977 88.3752 43.1727 88.1795C43.3684 87.9838 43.6155 87.8809 43.9039 87.8809C44.1923 87.8809 44.4394 87.9838 44.6351 88.1795C44.8308 88.3855 44.9338 88.6224 44.9338 88.9004C44.9338 89.1991 44.8308 89.4463 44.6351 89.6419C44.4394 89.8376 44.1923 89.9406 43.9039 89.9406C43.6155 89.9406 43.3684 89.8376 43.1727 89.6419C42.977 89.4463 42.874 89.1991 42.874 88.9004ZM42.977 91.1558H44.8411V98.9313H42.977V91.1558Z" fill="white"/>
<path d="M49.2689 91.0137C49.9075 91.0137 50.4636 91.1167 50.9064 91.3329C51.3596 91.5492 51.7303 91.817 52.0187 92.1465C52.3071 92.4761 52.5233 92.8262 52.6469 93.2073C52.7808 93.5883 52.8426 93.9591 52.8426 94.2989V98.9333H50.9785V94.3401C50.9785 94.0621 50.927 93.8252 50.8343 93.6192C50.7417 93.4133 50.6181 93.2588 50.4636 93.1249C50.3091 92.991 50.1237 92.888 49.9178 92.8262C49.7118 92.7644 49.4955 92.7336 49.2689 92.7336C49.0424 92.7336 48.8261 92.7644 48.6201 92.8262C48.4142 92.888 48.2288 92.991 48.0743 93.1249C47.9198 93.2588 47.7962 93.4236 47.7036 93.6192C47.6109 93.8149 47.5594 94.0518 47.5594 94.3401V98.9333H45.6953V94.2989C45.6953 93.9591 45.7571 93.5986 45.891 93.2073C46.0146 92.8262 46.2308 92.4658 46.5192 92.1465C46.8076 91.8273 47.1783 91.5492 47.6315 91.3329C48.0846 91.1167 48.6304 91.0137 49.2689 91.0137Z" fill="white"/>
<path d="M53.7896 88.0469H55.6537V95.9357L59.1655 91.1571H61.39L58.5167 95.05L61.3282 98.9429H59.114L57.4044 96.5639L55.6434 98.9429H53.7793V88.0469H53.7896Z" fill="white"/>
<path d="M65.9834 88.0469H67.9298V97.1509H73.1925V98.9429H65.9834V88.0469Z" fill="white"/>
<path d="M73.5117 95.0506C73.5117 94.4533 73.6044 93.8971 73.8001 93.4131C73.9958 92.929 74.2635 92.4965 74.6137 92.1566C74.9638 91.8065 75.3964 91.5387 75.8907 91.3431C76.3851 91.1474 76.9412 91.0547 77.5385 91.0547C78.1358 91.0547 78.6919 91.1474 79.176 91.3431C79.66 91.5387 80.0926 91.8065 80.4427 92.1566C80.7929 92.5068 81.0709 92.929 81.2563 93.4131C81.4417 93.8971 81.5447 94.4533 81.5447 95.0506C81.5447 95.6479 81.452 96.204 81.2563 96.6984C81.0606 97.1927 80.7929 97.6252 80.4427 97.9754C80.0926 98.3255 79.6703 98.6036 79.176 98.789C78.6816 98.9744 78.1358 99.0773 77.5385 99.0773C76.9412 99.0773 76.3851 98.9847 75.8907 98.789C75.3964 98.5933 74.9638 98.3255 74.6137 97.9754C74.2635 97.6252 73.9855 97.1927 73.8001 96.6984C73.6147 96.204 73.5117 95.6479 73.5117 95.0506ZM75.3861 95.0609C75.3861 95.7921 75.5817 96.3482 75.9731 96.7601C76.3644 97.1618 76.8794 97.3678 77.5385 97.3678C78.1976 97.3678 78.7125 97.1618 79.1142 96.7601C79.5158 96.3585 79.7012 95.7921 79.7012 95.0609C79.7012 94.3297 79.5055 93.7735 79.1142 93.3616C78.7228 92.9496 78.1976 92.754 77.5385 92.754C76.8794 92.754 76.3644 92.9599 75.9731 93.3616C75.5817 93.7632 75.3861 94.3297 75.3861 95.0609Z" fill="white"/>
<path d="M84.0686 95.0609C84.0686 95.7921 84.2643 96.3482 84.6556 96.7601C85.047 97.1721 85.5619 97.3678 86.221 97.3678C86.6948 97.3678 87.1067 97.2545 87.4466 97.0382C87.7864 96.8219 88.0336 96.513 88.1984 96.1216H90.1448C89.9388 97.0382 89.496 97.7591 88.806 98.2844C88.116 98.8096 87.2612 99.0773 86.2416 99.0773C85.6443 99.0773 85.0882 98.9847 84.5938 98.789C84.0995 98.5933 83.667 98.3255 83.3168 97.9754C82.9666 97.6252 82.6886 97.1927 82.5032 96.6984C82.3178 96.204 82.2148 95.6479 82.2148 95.0506C82.2148 94.4533 82.3075 93.8971 82.5032 93.4131C82.6989 92.929 82.9666 92.4965 83.3168 92.1566C83.667 91.8065 84.0892 91.5387 84.5938 91.3431C85.0985 91.1474 85.6443 91.0547 86.2416 91.0547C87.2612 91.0547 88.1057 91.3122 88.7957 91.8374C89.4754 92.3626 89.9285 93.0732 90.1345 93.9589H88.1881C88.0233 93.5779 87.7658 93.2792 87.4363 93.0732C87.0964 92.8673 86.6948 92.7643 86.2313 92.7643C85.5825 92.7643 85.0573 92.9702 84.6659 93.3719C84.2746 93.7735 84.0789 94.34 84.0789 95.0712L84.0686 95.0609Z" fill="white"/>
<path d="M94.5419 91.043C95.1392 91.043 95.6953 91.1357 96.1897 91.3313C96.684 91.527 97.1165 91.7948 97.4667 92.1449C97.8168 92.4951 98.0949 92.9276 98.2803 93.422C98.476 93.9163 98.5686 94.4724 98.5686 95.0697V98.9317H96.7046V98.1799C96.5192 98.4168 96.2308 98.6228 95.8395 98.7979C95.4481 98.9729 94.9744 99.0656 94.3977 99.0656C93.821 99.0656 93.3163 98.9729 92.8426 98.7773C92.3689 98.5816 91.9569 98.3138 91.617 97.9637C91.2772 97.6135 91.0094 97.181 90.8138 96.6866C90.6181 96.1923 90.5254 95.6362 90.5254 95.0388C90.5254 94.4415 90.6181 93.8854 90.8138 93.4014C91.0094 92.9173 91.2772 92.4848 91.6273 92.1449C91.9775 91.7948 92.3997 91.527 92.8941 91.3313C93.3884 91.1357 93.9342 91.043 94.5316 91.043H94.5419ZM96.7046 95.0594C96.7046 94.3282 96.5089 93.7721 96.1176 93.3602C95.7262 92.9482 95.2113 92.7525 94.5522 92.7525C93.893 92.7525 93.3781 92.9585 92.9765 93.3602C92.5851 93.7618 92.3894 94.3282 92.3894 95.0594C92.3894 95.7906 92.5851 96.3468 92.9765 96.7587C93.3678 97.1604 93.893 97.3663 94.5522 97.3663C95.2113 97.3663 95.7262 97.1604 96.1176 96.7587C96.5089 96.3571 96.7046 95.7906 96.7046 95.0594Z" fill="white"/>
<path d="M99.5059 88.0469H101.37V98.9429H99.5059V88.0469Z" fill="white"/>
<path d="M102.307 97.9239C102.307 97.584 102.41 97.306 102.626 97.1C102.842 96.894 103.12 96.791 103.46 96.791C103.8 96.791 104.078 96.9043 104.294 97.1206C104.511 97.3368 104.614 97.6458 104.614 98.0372C104.614 98.2946 104.572 98.5624 104.469 98.8199C104.366 99.0773 104.263 99.3348 104.119 99.5614C103.975 99.7879 103.821 99.9939 103.645 100.159C103.47 100.334 103.306 100.457 103.151 100.55L102.729 100.375C102.883 100.138 102.997 99.9115 103.079 99.6849C103.161 99.4687 103.203 99.2524 103.223 99.0464C102.945 98.9949 102.719 98.8713 102.554 98.6757C102.389 98.48 102.307 98.2225 102.307 97.9136V97.9239Z" fill="white"/>
<path d="M109.196 93.4952C109.196 92.6404 109.32 91.868 109.577 91.178C109.835 90.488 110.195 89.8907 110.679 89.3964C111.153 88.902 111.73 88.521 112.409 88.2532C113.089 87.9855 113.851 87.8516 114.696 87.8516C115.674 87.8516 116.519 88.0266 117.26 88.3768C117.991 88.727 118.609 89.211 119.104 89.8289L117.518 90.9206C117.188 90.5189 116.786 90.1997 116.323 89.9834C115.86 89.7671 115.324 89.6435 114.696 89.6435C114.14 89.6435 113.635 89.7362 113.192 89.9113C112.749 90.0967 112.379 90.3541 112.08 90.6837C111.781 91.0133 111.544 91.4149 111.39 91.8989C111.225 92.3727 111.153 92.9082 111.153 93.5055C111.153 94.1029 111.235 94.6281 111.39 95.1121C111.555 95.5859 111.781 95.9978 112.08 96.3274C112.379 96.6569 112.749 96.9144 113.192 97.0998C113.635 97.2851 114.129 97.3675 114.696 97.3675C115.159 97.3675 115.592 97.3057 115.973 97.1924C116.354 97.0689 116.694 96.9041 116.982 96.6878V94.8238H114.696V93.0318H118.929V97.3881C118.506 97.9134 117.94 98.3459 117.229 98.6755C116.519 99.005 115.674 99.1698 114.696 99.1698C113.841 99.1698 113.079 99.0359 112.409 98.7681C111.74 98.5004 111.163 98.1193 110.679 97.625C110.206 97.1307 109.835 96.5333 109.577 95.8433C109.32 95.1533 109.196 94.3809 109.196 93.5261V93.4952Z" fill="white"/>
<path d="M119.794 94.577C119.794 93.3927 120.144 92.507 120.834 91.9097C121.524 91.3123 122.472 91.0137 123.646 91.0137V92.7233C123.028 92.7233 122.533 92.8777 122.183 93.1867C121.833 93.4956 121.658 93.9591 121.658 94.577V98.9333H119.794V94.577Z" fill="white"/>
<path d="M123.76 95.0506C123.76 94.4533 123.852 93.8971 124.048 93.4131C124.244 92.929 124.512 92.4965 124.862 92.1566C125.212 91.8065 125.644 91.5387 126.139 91.3431C126.633 91.1474 127.189 91.0547 127.787 91.0547C128.384 91.0547 128.94 91.1474 129.424 91.3431C129.908 91.5387 130.341 91.8065 130.691 92.1566C131.041 92.5068 131.319 92.929 131.504 93.4131C131.69 93.8971 131.793 94.4533 131.793 95.0506C131.793 95.6479 131.7 96.204 131.504 96.6984C131.309 97.1927 131.041 97.6252 130.691 97.9754C130.341 98.3255 129.918 98.6036 129.424 98.789C128.93 98.9744 128.384 99.0773 127.787 99.0773C127.189 99.0773 126.633 98.9847 126.139 98.789C125.644 98.5933 125.212 98.3255 124.862 97.9754C124.512 97.6252 124.234 97.1927 124.048 96.6984C123.863 96.204 123.76 95.6479 123.76 95.0506ZM125.624 95.0609C125.624 95.7921 125.82 96.3482 126.211 96.7601C126.602 97.1618 127.117 97.3678 127.776 97.3678C128.435 97.3678 128.95 97.1618 129.352 96.7601C129.754 96.3585 129.939 95.7921 129.939 95.0609C129.939 94.3297 129.743 93.7735 129.352 93.3616C128.961 92.9496 128.435 92.754 127.776 92.754C127.117 92.754 126.602 92.9599 126.211 93.3616C125.82 93.7632 125.624 94.3297 125.624 95.0609Z" fill="white"/>
<path d="M131.555 91.1582H133.563L135.458 96.4311L137.353 91.1582H139.362L138.785 92.6824L140.124 96.4311L142.019 91.1582H144.027L141.081 98.9337H139.156L137.786 95.288L136.416 98.9337H134.49L131.545 91.1582H131.555Z" fill="white"/>
<path d="M148.156 93.4952C148.156 92.6404 148.28 91.868 148.537 91.178C148.795 90.488 149.155 89.8907 149.639 89.3964C150.113 88.902 150.69 88.521 151.369 88.2532C152.049 87.9855 152.811 87.8516 153.656 87.8516C154.634 87.8516 155.479 88.0266 156.22 88.3768C156.951 88.727 157.569 89.211 158.064 89.8289L156.478 90.9206C156.148 90.5189 155.746 90.1997 155.283 89.9834C154.819 89.7671 154.284 89.6435 153.656 89.6435C153.1 89.6435 152.595 89.7362 152.152 89.9113C151.709 90.0967 151.339 90.3541 151.04 90.6837C150.741 91.0133 150.504 91.4149 150.35 91.8989C150.185 92.3727 150.113 92.9082 150.113 93.5055C150.113 94.1029 150.195 94.6281 150.35 95.1121C150.515 95.5859 150.741 95.9978 151.04 96.3274C151.339 96.6569 151.709 96.9144 152.152 97.0998C152.595 97.2851 153.089 97.3675 153.656 97.3675C154.119 97.3675 154.552 97.3057 154.933 97.1924C155.314 97.0689 155.654 96.9041 155.942 96.6878V94.8238H153.656V93.0318H157.888V97.3881C157.466 97.9134 156.9 98.3459 156.189 98.6755C155.479 99.005 154.634 99.1698 153.656 99.1698C152.801 99.1698 152.039 99.0359 151.369 98.7681C150.7 98.5004 150.123 98.1193 149.639 97.625C149.166 97.1307 148.795 96.5333 148.537 95.8433C148.28 95.1533 148.156 94.3809 148.156 93.5261V93.4952Z" fill="white"/>
<path d="M158.908 88.0469H160.772V98.9429H158.908V88.0469Z" fill="white"/>
<path d="M161.493 95.0506C161.493 94.4533 161.586 93.8971 161.782 93.4131C161.977 92.929 162.245 92.4965 162.595 92.1566C162.945 91.8065 163.378 91.5387 163.872 91.3431C164.366 91.1474 164.923 91.0547 165.52 91.0547C166.117 91.0547 166.673 91.1474 167.157 91.3431C167.641 91.5387 168.074 91.8065 168.424 92.1566C168.774 92.5068 169.052 92.929 169.238 93.4131C169.423 93.8971 169.526 94.4533 169.526 95.0506C169.526 95.6479 169.433 96.204 169.238 96.6984C169.042 97.1927 168.774 97.6252 168.424 97.9754C168.074 98.3255 167.652 98.6036 167.157 98.789C166.663 98.9744 166.117 99.0773 165.52 99.0773C164.923 99.0773 164.366 98.9847 163.872 98.789C163.378 98.5933 162.945 98.3255 162.595 97.9754C162.245 97.6252 161.967 97.1927 161.782 96.6984C161.596 96.204 161.493 95.6479 161.493 95.0506ZM163.357 95.0609C163.357 95.7921 163.553 96.3482 163.944 96.7601C164.336 97.1618 164.851 97.3678 165.51 97.3678C166.169 97.3678 166.684 97.1618 167.085 96.7601C167.487 96.3585 167.672 95.7921 167.672 95.0609C167.672 94.3297 167.477 93.7735 167.085 93.3616C166.694 92.9496 166.169 92.754 165.51 92.754C164.851 92.754 164.336 92.9599 163.944 93.3616C163.553 93.7632 163.357 94.3297 163.357 95.0609Z" fill="white"/>
<path d="M172.039 88.0469V91.9192C172.224 91.6823 172.513 91.4763 172.914 91.3013C173.306 91.1262 173.79 91.0335 174.346 91.0335C174.902 91.0335 175.427 91.1262 175.901 91.3218C176.375 91.5175 176.787 91.7853 177.126 92.1354C177.466 92.4856 177.734 92.9078 177.93 93.4125C178.125 93.9068 178.218 94.4629 178.218 95.0603C178.218 95.6576 178.125 96.2034 177.93 96.6978C177.734 97.1921 177.466 97.604 177.116 97.9542C176.766 98.3043 176.344 98.5824 175.86 98.7678C175.376 98.9635 174.84 99.0561 174.253 99.0561C173.666 99.0561 173.151 98.9635 172.646 98.7884C172.142 98.6133 171.72 98.3455 171.359 98.0057C170.999 97.6658 170.71 97.2436 170.494 96.7492C170.278 96.2549 170.175 95.6885 170.175 95.0706V88.0572H172.039V88.0469ZM175.767 93.3507C175.376 92.949 174.861 92.7431 174.202 92.7431C173.542 92.7431 173.028 92.949 172.626 93.3507C172.235 93.7523 172.039 94.3188 172.039 95.05C172.039 95.7812 172.235 96.3373 172.626 96.7492C173.017 97.1509 173.542 97.3569 174.202 97.3569C174.861 97.3569 175.376 97.1509 175.767 96.7492C176.158 96.3476 176.354 95.7812 176.354 95.05C176.354 94.3188 176.158 93.7626 175.767 93.3507Z" fill="white"/>
<path d="M182.874 91.043C183.471 91.043 184.027 91.1357 184.522 91.3313C185.016 91.527 185.449 91.7948 185.799 92.1449C186.149 92.4951 186.427 92.9276 186.612 93.422C186.808 93.9163 186.901 94.4724 186.901 95.0697V98.9317H185.037V98.1799C184.851 98.4168 184.563 98.6228 184.172 98.7979C183.78 98.9729 183.306 99.0656 182.73 99.0656C182.153 99.0656 181.648 98.9729 181.175 98.7773C180.701 98.5816 180.289 98.3138 179.949 97.9637C179.609 97.6135 179.341 97.181 179.146 96.6866C178.95 96.1923 178.857 95.6362 178.857 95.0388C178.857 94.4415 178.95 93.8854 179.146 93.4014C179.341 92.9173 179.609 92.4848 179.959 92.1449C180.31 91.7948 180.732 91.527 181.226 91.3313C181.72 91.1357 182.266 91.043 182.864 91.043H182.874ZM185.037 95.0594C185.037 94.3282 184.841 93.7721 184.45 93.3602C184.058 92.9482 183.543 92.7525 182.884 92.7525C182.225 92.7525 181.71 92.9585 181.309 93.3602C180.917 93.7618 180.721 94.3282 180.721 95.0594C180.721 95.7906 180.917 96.3468 181.309 96.7587C181.7 97.1604 182.225 97.3663 182.884 97.3663C183.543 97.3663 184.058 97.1604 184.45 96.7587C184.841 96.3571 185.037 95.7906 185.037 95.0594Z" fill="white"/>
<path d="M187.837 88.0469H189.701V98.9429H187.837V88.0469Z" fill="white"/>
</g>
<defs>
<clipPath id="clip0_6130_16825">
<rect width="282.945" height="99.9989" fill="white" transform="translate(0 0.550781)"/>
</clipPath>
</defs>
</svg>
